<svg xmlns:dc="http://purl.org/dc/elements/1.1/" xmlns:cc="http://creativecommons.org/ns#" xmlns:rdf="http://www.w3.org/1999/02/22-rdf-syntax-ns#" xmlns:svg="http://www.w3.org/2000/svg" xmlns="http://www.w3.org/2000/svg" xmlns:sodipodi="http://sodipodi.sourceforge.net/DTD/sodipodi-0.dtd" xmlns:inkscape="http://www.inkscape.org/namespaces/inkscape" viewBox="0 0 100 125" version="1.1" x="0px" y="0px"><g transform="translate(0,-952.36216)"><path style="opacity:1;fill:#000000;fill-opacity:1;stroke:none;stroke-width:0.1;stroke-linecap:square;stroke-linejoin:miter;stroke-miterlimit:4;stroke-dasharray:none;stroke-dashoffset:288.50640869;stroke-opacity:1" d="m 49.999271,957.79686 -44.9992705,14.8337 0,8.8473 89.9999995,0 0,-8.8473 -45.000729,-14.8337 z m -44.9992705,28.1054 0,8.8487 7.8318045,0 0,43.32774 -7.8318045,0 0,8.8488 89.9999995,0 0,-8.8488 -7.833264,0 0,-43.32774 7.833264,0 0,-8.8487 -89.9999995,0 z m 13.3403675,8.8487 11.698029,0 0,43.32774 -11.698029,0 0,-43.32774 z m 17.206592,0 11.698029,0 0,7.24444 -7.739749,0 0,28.8403 7.73975,0 0,7.243 -11.698029,0 0,-43.32774 z m 17.206593,0 11.698029,0 0,43.32774 -11.698028,0 0,-7.243 7.739748,0 0,-28.8403 -7.739749,0 0,-7.24444 z m 17.206592,0 11.698028,0 0,43.32774 -11.698028,0 0,-43.32774 z m -19.962333,13.20154 c 2.482792,6e-4 4.495462,2.0147 4.495978,4.4976 -0.0015,1.5643 -0.81465,3.0151 -2.149365,3.831 l 0.590313,7.0604 c 0.108132,1.295 -1.637402,1.5386 -2.936926,1.5386 -1.299509,0 -3.043637,-0.2436 -2.935467,-1.5386 l 0.591765,-7.0604 c -1.334746,-0.8159 -2.149171,-2.2667 -2.150824,-3.831 5.16e-4,-2.4829 2.01172,-4.497 4.494526,-4.4976 z"/></g><text x="0" y="115" fill="#000000" font-size="5px" font-weight="bold" font-family="'Helvetica Neue', Helvetica, Arial-Unicode, Arial, Sans-serif">Created by Andrew Doane</text><text x="0" y="120" fill="#000000" font-size="5px" font-weight="bold" font-family="'Helvetica Neue', Helvetica, Arial-Unicode, Arial, Sans-serif">from the Noun Project</text></svg>